<svg width="289" height="716" viewBox="0 0 289 716" fill="none" xmlns="http://www.w3.org/2000/svg">
<g clip-path="url(#clip0_1824_2439)">
<g opacity="0.3" filter="url(#filter0_d_1824_2439)">
<path d="M83.2282 210.228C81.0752 210.357 79.4347 212.207 79.564 214.359C79.6934 216.512 81.5436 218.152 83.6966 218.023C85.8496 217.894 87.4901 216.044 87.3608 213.892C87.2314 211.74 85.3812 210.099 83.2282 210.228Z" fill="url(#paint0_radial_1824_2439)"/>
</g>
<g opacity="0.3" filter="url(#filter1_d_1824_2439)">
<path d="M-308.641 368.534C-307.22 370.162 -304.762 370.337 -303.134 368.917C-303.007 368.817 -302.898 368.685 -302.79 368.554L-204.667 445.242L-204.756 445.404L-204.442 445.398L-203.649 446.023L-203.95 445.407L-130.358 445.888C-130.317 446.73 -130.013 447.555 -129.41 448.214C-128.259 449.546 -126.413 449.893 -124.906 449.225L-98.4106 500.856C-98.593 500.97 -98.8058 501.104 -98.9692 501.248C-100.598 502.668 -100.773 505.125 -99.3523 506.753C-97.9316 508.381 -95.4736 508.557 -93.8453 507.137C-93.5242 506.873 -93.2658 506.542 -93.0569 506.2L-22.9783 542.503C-23.6049 543.868 -23.433 545.494 -22.3831 546.699C-21.5596 547.643 -20.3637 548.1 -19.2023 548.03L-11.6622 618.684C-12.3426 618.814 -13.0078 619.103 -13.5588 619.574C-15.1871 620.994 -15.3627 623.451 -13.9419 625.079C-12.5211 626.707 -10.0632 626.883 -8.43487 625.463C-7.10294 624.313 -6.75032 622.443 -7.43731 620.906L50.9534 590.1C51.0675 590.283 51.1816 590.465 51.3262 590.628C52.747 592.256 55.2049 592.432 56.8332 591.012C57.2569 590.641 57.5931 590.199 57.8115 589.702L112.096 610.738C111.762 611.962 112.021 613.323 112.902 614.358C114.322 615.986 116.78 616.162 118.409 614.742C120.037 613.322 120.212 610.865 118.792 609.237C118.113 608.456 117.175 608.006 116.232 607.919L117.886 558.478C118.753 558.444 119.627 558.151 120.317 557.529C121.945 556.109 122.121 553.652 120.7 552.024C119.977 551.207 118.99 550.745 117.962 550.691L117.393 469.882C118.21 469.836 119.01 469.526 119.67 468.924C121.298 467.504 121.474 465.047 120.053 463.418C118.632 461.79 116.174 461.615 114.546 463.035C113.831 463.651 113.41 464.464 113.266 465.316L60.0633 459.696C60.1009 458.742 59.781 457.758 59.102 456.977C57.8068 455.482 55.6301 455.215 54.0073 456.272L-22.7328 353.862L-22.9267 354.025C-21.2983 352.605 -21.1228 350.148 -22.5435 348.52C-23.9643 346.892 -26.4222 346.716 -28.0505 348.136C-28.5047 348.526 -28.8162 348.975 -29.0402 349.495L-68.6646 336.675C-68.6191 336.477 -68.5735 336.28 -68.5831 336.095L26.875 336.669C26.9154 337.511 27.2256 338.311 27.8228 338.995C29.2436 340.623 31.7015 340.799 33.3298 339.379C34.9582 337.959 35.1337 335.501 33.713 333.873C32.8323 332.838 31.5015 332.401 30.2432 332.554L9.09753 225.829C9.60498 225.66 10.1048 225.411 10.5285 225.04C12.1568 223.62 12.3324 221.163 10.9116 219.535C9.63537 218.07 7.48915 217.784 5.87771 218.791L-25.8663 178.309C-24.2626 176.883 -24.1175 174.445 -25.5135 172.823C-26.9343 171.195 -29.3922 171.019 -31.0205 172.439C-32.1644 173.451 -32.5913 174.965 -32.2333 176.349L-70.1266 188.668C-70.2751 188.296 -70.4843 187.962 -70.7734 187.635C-72.1942 186.007 -74.6521 185.831 -76.2804 187.251C-77.9088 188.671 -78.0843 191.128 -76.6635 192.756C-76.6388 192.762 -76.6445 192.787 -76.6198 192.792L-112.378 232.115C-113.829 230.844 -116.008 230.811 -117.503 232.105C-117.987 232.514 -118.31 233.012 -118.54 233.558L-167.741 216.892C-167.413 215.693 -167.672 214.333 -168.558 213.322C-169.979 211.694 -172.437 211.518 -174.065 212.938C-175.694 214.358 -175.869 216.815 -174.449 218.443C-174.097 218.837 -173.678 219.167 -173.207 219.38L-191.087 262.664C-192.369 262.239 -193.829 262.475 -194.906 263.423C-195.723 264.146 -196.179 265.107 -196.252 266.105L-262.062 265.96C-262.108 265.142 -262.413 264.318 -263.01 263.634C-264.431 262.006 -266.889 261.83 -268.517 263.25C-270.146 264.67 -270.321 267.127 -268.9 268.755C-267.976 269.827 -266.615 270.244 -265.32 270.048L-244.206 362.561C-244.739 362.724 -245.214 362.979 -245.662 363.344C-245.789 363.445 -245.892 363.551 -246 363.683L-301.794 365.584C-301.876 364.81 -302.167 364.041 -302.726 363.418C-304.147 361.79 -306.605 361.614 -308.233 363.034C-309.905 364.418 -310.062 366.906 -308.641 368.534ZM-204.359 444.584L-241.163 369.688C-240.951 369.555 -240.738 369.421 -240.544 369.258C-240.35 369.094 -240.175 368.901 -240.025 368.701L-185.982 405.473L-204.359 444.584ZM-149.161 279.162C-149.212 280.061 -148.93 280.985 -148.35 281.743L-240.233 363.502L-240.418 363.511C-240.631 363.306 -240.874 363.12 -241.148 362.953L-196.03 274.065L-149.161 279.162ZM-148.93 278.045L-188.525 267.13C-188.396 266.458 -188.421 265.776 -188.636 265.128L-156.708 252.266L-146.96 275.819C-147.252 275.96 -147.532 276.156 -147.792 276.382C-148.343 276.853 -148.738 277.439 -148.93 278.045ZM-147.993 282.111C-147.61 282.485 -147.181 282.767 -146.703 282.955L-172.506 361.539L-239.217 365.869C-239.297 365.2 -239.537 364.547 -239.978 363.977L-147.993 282.111ZM-141.346 279.583L-82.2446 279.589C-82.1985 280.406 -81.894 281.231 -81.2911 281.89C-81.0457 282.18 -80.7586 282.403 -80.4657 282.6L-98.559 315.168L-142.024 281.509C-141.61 280.954 -141.401 280.273 -141.346 279.583ZM-239.448 367.663L-183.562 383.553C-183.805 384.719 -183.523 385.981 -182.705 386.95C-181.41 388.445 -179.233 388.712 -177.61 387.655L-185.775 405.027L-239.75 368.296C-239.624 368.091 -239.524 367.88 -239.448 367.663ZM-239.226 366.361L-172.7 362.041L-178.788 380.567C-179.994 380.264 -181.33 380.528 -182.335 381.39C-182.856 381.842 -183.22 382.409 -183.442 383.034L-239.106 367.196L-239.328 367.144C-239.247 366.903 -239.215 366.65 -239.226 366.361ZM-176.809 381.804C-177.218 381.319 -177.735 380.966 -178.306 380.731L-172.147 362.012L-126.229 359.033C-126.193 359.328 -126.126 359.604 -126.029 359.86L-176.297 382.52C-176.425 382.283 -176.602 382.034 -176.809 381.804ZM-125.81 360.379C-125.663 360.647 -125.511 360.89 -125.304 361.12C-124.587 361.961 -123.594 362.398 -122.566 362.453L-123.692 384.854L-175.848 384.185C-175.861 383.791 -175.955 383.405 -176.098 383.008L-125.81 360.379ZM-122.068 362.437C-121.251 362.391 -120.451 362.081 -119.797 361.503C-119.404 361.152 -119.104 360.753 -118.872 360.312L-61.4248 384.678C-61.5235 384.993 -61.6031 385.339 -61.6277 385.672L-123.174 384.869L-122.068 362.437ZM-76.0416 337.291L-119.144 356.294C-119.22 356.173 -119.302 356.076 -119.408 355.973C-119.653 355.683 -119.941 355.461 -120.233 355.263L-98.378 315.965L-75.6747 333.551C-76.4478 334.648 -76.5687 336.077 -76.0416 337.291ZM-118.614 359.643C-118.504 359.278 -118.462 358.871 -118.451 358.483L-66.9868 354.362L-59.0518 382.284C-59.5041 382.44 -59.9241 382.682 -60.3117 383.009C-60.705 383.361 -61.0051 383.76 -61.2368 384.201L-118.614 359.643ZM-118.491 357.98C-118.548 357.55 -118.685 357.129 -118.883 356.745L-75.8056 337.736C-75.6915 337.918 -75.5583 338.131 -75.4138 338.294C-74.3449 339.529 -72.689 339.911 -71.2275 339.441L-67.1258 353.836L-118.491 357.98ZM-75.0307 332.789C-75.1637 332.915 -75.2663 333.021 -75.3992 333.146L-98.1653 315.493L-80.0303 282.857C-79.4656 283.117 -78.8231 283.265 -78.2148 283.223L-73.1284 331.874C-73.7841 332.01 -74.4493 332.299 -75.0307 332.789ZM-98.7964 315.634L-120.669 355.007C-121.445 354.646 -122.332 354.545 -123.178 354.715L-143.903 283.001C-143.451 282.845 -143.031 282.604 -142.668 282.271C-142.535 282.145 -142.433 282.039 -142.3 281.914L-98.7964 315.634ZM-123.68 354.859C-124.132 355.015 -124.552 355.257 -124.915 355.59C-125.799 356.375 -126.252 357.441 -126.244 358.536L-171.947 361.486L-146.19 283.099C-145.603 283.26 -144.981 283.273 -144.375 283.127L-123.68 354.859ZM-130.373 445.39L-203.971 444.934L-185.583 405.774L-129.821 443.67C-130.125 444.199 -130.311 444.78 -130.373 445.39ZM-129.545 443.266L-185.345 405.308L-177.116 387.769L-129.196 442.878C-129.329 443.003 -129.437 443.134 -129.545 443.266ZM-128.833 442.545L-176.998 387.146C-176.322 386.469 -175.908 385.576 -175.857 384.677L-123.725 385.34L-126.516 441.752C-127.328 441.773 -128.141 442.028 -128.833 442.545ZM-123.689 442.923C-124.347 442.277 -125.166 441.881 -126.029 441.786L-123.208 385.355L-61.6369 386.164C-61.6042 386.926 -61.3377 387.69 -60.8337 388.326L-123.689 442.923ZM-60.5008 388.689C-60.1243 389.088 -59.6698 389.375 -59.1679 389.568L-80.8558 455.936L-122.562 446.279C-122.403 445.249 -122.645 444.152 -123.301 443.273L-60.5008 388.689ZM-58.7097 389.726C-57.8504 389.95 -56.9228 389.877 -56.1056 389.493L-13.106 469.017C-13.1725 469.08 -13.2637 469.137 -13.3302 469.199C-13.9838 469.777 -14.3826 470.492 -14.5647 471.282L-80.3672 456.075L-58.7097 389.726ZM-97.9412 500.626L-124.442 449.02C-124.26 448.906 -124.047 448.773 -123.884 448.628C-123.302 448.138 -122.921 447.497 -122.706 446.792L-81.0247 456.444L-95.3979 500.432C-96.2572 500.208 -97.1544 500.261 -97.9412 500.626ZM-92.8287 502.61C-92.9829 502.263 -93.1978 501.953 -93.4375 501.638C-93.8711 501.147 -94.3883 500.794 -94.934 500.564L-80.5494 456.527L-14.6728 471.752C-14.7182 472.288 -14.6647 472.846 -14.4953 473.354L-38.4683 482.298L-92.8287 502.61ZM-92.6536 503.093L-88.2976 501.468L-14.2764 473.872C-14.1356 474.165 -13.9453 474.469 -13.719 474.729C-13.1655 475.377 -12.4506 475.776 -11.6845 475.952L-15.6571 510.264L-92.4591 504.282C-92.4916 503.859 -92.5299 503.46 -92.6536 503.093ZM-6.86382 472.198L49.5355 469.473L24.2624 508.921C22.9941 508.213 21.3955 508.261 20.1566 509.12L-8.30889 475.195C-8.2728 475.151 -8.24238 475.132 -8.18727 475.119C-7.32847 474.328 -6.88039 473.286 -6.86382 472.198ZM-16.0954 542.111L5.42041 526.774L20.7321 515.887C21.2721 516.142 21.8462 516.248 22.4431 516.255L8.473 560.414L-15.8959 545.877C-15.3091 544.686 -15.3725 543.266 -16.0954 542.111ZM19.7442 509.442C18.7525 510.358 18.3216 511.664 18.499 512.927L-15.1705 510.298L-11.1845 476.042C-10.3462 476.131 -9.46995 475.942 -8.74024 475.486L19.7442 509.442ZM-21.981 541.224C-22.2774 541.494 -22.5244 541.775 -22.7276 542.093L-92.8062 505.789C-92.6524 505.461 -92.5727 505.115 -92.5235 504.788L-15.7272 510.794L-19.1681 540.311C-20.1605 540.212 -21.1697 540.526 -21.981 541.224ZM-18.6511 540.326L-15.2292 510.779L18.619 513.423C18.7828 513.955 19.032 514.455 19.4276 514.884C19.673 515.175 19.9354 515.391 20.2283 515.589L0.95275 529.335L-16.3865 541.68C-16.4055 541.649 -16.4245 541.619 -16.4683 541.583C-17.0465 540.929 -17.8298 540.489 -18.6511 540.326ZM-11.1394 618.674L-18.6796 548.02C-18.0238 547.885 -17.3891 547.615 -16.8381 547.143C-16.5721 546.892 -16.3308 546.636 -16.1332 546.343L8.30408 560.921L-10.0426 618.771C-10.3886 618.691 -10.7707 618.655 -11.1394 618.674ZM-7.63518 620.522C-7.74933 620.34 -7.86348 620.157 -8.00803 619.994C-8.44167 619.504 -8.95888 619.151 -9.52926 618.915L8.73949 561.177L50.7956 586.265C50.2676 587.315 50.2169 588.552 50.7174 589.656L-7.63518 620.522ZM51.715 585.098C51.4547 585.325 51.2438 585.562 51.052 585.83L8.88372 560.664L22.9525 516.19C23.3821 516.133 23.7793 515.991 24.1632 515.793L35.0722 542.214L52.5473 584.536C52.2489 584.701 51.9753 584.872 51.715 585.098ZM53.03 584.361L24.6383 515.538C24.7352 515.456 24.8568 515.38 24.9537 515.298C25.3413 514.971 25.6414 514.572 25.8427 514.15L79.7862 538.022L55.8377 584.487C54.9441 584.073 53.9347 584.049 53.03 584.361ZM57.222 585.482C56.9576 585.161 56.6267 584.903 56.2845 584.694L80.2387 538.204L114.133 553.191C113.788 554.126 113.826 555.202 114.237 556.129L57.6252 585.991C57.5054 585.834 57.3666 585.645 57.222 585.482ZM117.424 558.45L115.771 607.89C114.904 607.925 114.03 608.218 113.34 608.84C112.88 609.254 112.538 609.722 112.308 610.267L58.0242 589.231C58.3088 588.334 58.2532 587.333 57.8555 586.461L114.467 556.598C114.582 556.78 114.696 556.963 114.84 557.126C115.519 557.907 116.457 558.357 117.424 558.45ZM116.956 469.86L117.525 550.668C116.707 550.714 115.907 551.024 115.248 551.627C114.86 551.954 114.56 552.353 114.359 552.775L80.4894 537.793L115.64 469.583C116.049 469.729 116.494 469.831 116.956 469.86ZM113.788 467.907C113.921 468.12 114.054 468.333 114.218 468.527C114.482 468.848 114.813 469.106 115.155 469.315L79.9989 537.55L26.0307 513.673C26.3705 512.763 26.3452 511.742 25.9779 510.851L113.788 467.907ZM113.558 467.438L25.7724 510.388C25.6392 510.175 25.5061 509.962 25.3425 509.768C25.1599 509.544 24.9412 509.364 24.6978 509.178L50.1685 469.437L113.304 466.391C113.348 466.765 113.428 467.096 113.558 467.438ZM58.774 462.469C59.4884 461.853 59.91 461.04 60.0541 460.188L113.257 465.808C113.251 465.832 113.245 465.857 113.258 465.912L50.461 468.958L54.311 462.976C55.7276 463.719 57.5029 463.581 58.774 462.469ZM53.267 462.086C53.4496 462.31 53.6683 462.49 53.9117 462.676L49.8831 468.981L-6.86027 471.73L-6.85458 471.705L52.4564 460.52C52.5651 461.065 52.8581 461.601 53.267 462.086ZM-23.0844 354.145L53.6862 456.536L53.6558 456.555C52.645 457.441 52.1894 458.741 52.3478 459.975L-6.96321 471.16C-7.11557 470.579 -7.38386 470.049 -7.79278 469.564C-8.6791 468.553 -9.97952 468.098 -11.2378 468.25L-24.8917 354.874C-24.2531 354.813 -23.624 354.567 -23.0844 354.145ZM-25.4011 354.938L-11.7586 468.365C-12.0893 468.444 -12.4067 468.579 -12.705 468.745L-19.5298 456.116L-55.6609 389.257C-55.4785 389.143 -55.3265 389.048 -55.1631 388.904C-53.5348 387.484 -53.3592 385.026 -54.78 383.398C-54.818 383.338 -54.8618 383.301 -54.9302 383.26L-28.1275 353.894C-27.3763 354.588 -26.3915 354.944 -25.4011 354.938ZM-29.332 351.327C-29.2746 352.095 -28.9834 352.865 -28.4737 353.476L-55.2878 382.891C-56.2119 382.158 -57.423 381.879 -58.5444 382.115L-66.4526 354.303L-29.332 351.327ZM-68.786 337.089L-29.1864 349.904C-29.2794 350.195 -29.3286 350.522 -29.3475 350.829L-66.6031 353.826L-70.7447 339.266C-70.4521 339.125 -70.1481 338.935 -69.8877 338.709C-69.3671 338.256 -69.0024 337.69 -68.786 337.089ZM8.67365 225.861L29.7946 332.581C29.2377 332.739 28.7075 333.007 28.2287 333.391C27.4174 334.088 26.956 335.075 26.8823 336.073L-68.5758 335.499C-68.6162 334.657 -68.9265 333.857 -69.5237 333.173C-69.6682 333.01 -69.8375 332.84 -70.0124 332.696L5.95705 225.34C6.77847 225.841 7.75369 226.014 8.67365 225.861ZM4.88635 224.339C4.94342 224.43 5.00619 224.497 5.08797 224.593C5.23251 224.757 5.40178 224.926 5.57672 225.07L-70.3927 332.426C-71.0526 332.014 -71.8187 331.838 -72.5999 331.84L-77.6864 283.188C-77.006 283.059 -76.3408 282.77 -75.7898 282.298C-74.3553 281.042 -74.0369 278.982 -74.971 277.388L4.88635 224.339ZM-71.1204 193.096C-69.9462 192.066 -69.5326 190.496 -69.9344 189.077L-32.0411 176.757C-31.8736 177.16 -31.6453 177.525 -31.3619 177.876C-30.0476 179.402 -27.8159 179.655 -26.2064 178.543L5.51857 218.995C5.48816 219.014 5.45774 219.033 5.42734 219.052C3.9985 220.284 3.68588 222.319 4.57056 223.902L-75.2678 276.981C-75.3306 276.915 -75.3686 276.854 -75.4314 276.787C-76.0857 276.012 -76.9983 275.568 -77.9412 275.481L-73.8154 194.063C-72.825 194.057 -71.871 193.756 -71.1204 193.096ZM-76.0265 193.267C-75.4959 193.676 -74.8761 193.923 -74.2469 194.015L-78.3784 275.458C-79.2642 275.462 -80.1689 275.774 -80.889 276.415C-81.706 277.137 -82.1617 278.099 -82.2163 279.127L-141.318 279.122C-141.364 278.304 -141.669 277.48 -142.272 276.821C-142.372 276.693 -142.479 276.591 -142.585 276.488L-76.0265 193.267ZM-79.017 196.195L-111.287 236.529C-110.746 235.197 -110.959 233.638 -111.941 232.476L-111.96 232.445L-79.017 196.195ZM-112.67 238.24L-140.99 273.63L-116.757 238.469C-115.483 239.153 -113.909 239.099 -112.67 238.24ZM-118.381 236.82C-118.234 237.088 -118.063 237.362 -117.856 237.592C-117.648 237.822 -117.435 238.027 -117.186 238.188L-143.223 275.977C-144.206 275.387 -145.401 275.267 -146.477 275.644L-156.225 252.091L-118.381 236.82ZM-168.936 218.803C-168.451 218.394 -168.128 217.896 -167.899 217.35L-118.698 234.016C-118.899 234.776 -118.858 235.618 -118.586 236.357L-156.45 251.597L-169.787 219.335C-169.5 219.219 -169.196 219.029 -168.936 218.803ZM-174.85 224.595L-172.779 219.556C-171.956 219.824 -171.076 219.845 -170.257 219.565L-156.913 251.803L-188.841 264.664C-188.977 264.347 -189.173 264.067 -189.418 263.777C-189.77 263.384 -190.188 263.053 -190.66 262.84L-174.85 224.595ZM-189.807 269.307C-189.28 268.83 -188.891 268.269 -188.669 267.644L-149.074 278.558C-149.085 278.608 -149.091 278.632 -149.102 278.682L-195.768 273.605L-193.916 269.973C-192.583 270.514 -190.975 270.312 -189.807 269.307ZM-196.262 266.597C-196.215 267.414 -195.911 268.239 -195.314 268.923C-195.025 269.25 -194.694 269.508 -194.351 269.717L-196.292 273.511L-261.211 266.442L-196.262 266.597ZM-264.855 269.947C-264.322 269.784 -263.847 269.529 -263.399 269.164C-262.685 268.548 -262.263 267.734 -262.119 266.883L-196.541 274.026L-241.589 362.721C-242.277 362.433 -243.011 362.342 -243.741 362.46L-264.855 269.947ZM-301.803 366.076L-246.428 364.182C-247.33 365.614 -247.245 367.506 -246.07 368.844C-244.938 370.145 -243.123 370.511 -241.627 369.893L-205.072 444.29L-302.465 368.161C-302.04 367.556 -301.82 366.827 -301.803 366.076Z" fill="url(#paint1_radial_1824_2439)"/>
</g>
<g opacity="0.3" filter="url(#filter2_d_1824_2439)">
<path d="M31.3218 66.3925C32.7426 68.0204 35.2004 68.1963 36.8286 66.7763C38.4569 65.3563 38.6324 62.8992 37.2117 61.2713C35.791 59.6433 33.3332 59.4674 31.7049 60.8874C30.0823 62.2828 29.9011 64.7645 31.3218 66.3925Z" fill="url(#paint2_radial_1824_2439)"/>
</g>
<g filter="url(#filter3_d_1824_2439)">
<path d="M-189.148 158.419C-188.979 159.603 -188.064 160.49 -186.971 160.716L-193.7 223.947C-193.854 223.937 -193.989 223.958 -194.149 223.974C-195.658 224.198 -196.684 225.601 -196.453 227.085C-196.228 228.594 -194.825 229.62 -193.34 229.389C-193.101 229.366 -192.874 229.288 -192.667 229.18L-175.766 260.208C-176.629 260.789 -177.121 261.795 -176.959 262.899C-176.734 264.408 -175.33 265.433 -173.846 265.203C-173.171 265.098 -172.605 264.786 -172.208 264.305L-140.938 287.299C-141.267 287.822 -141.39 288.47 -141.304 289.114C-141.205 289.813 -140.825 290.421 -140.3 290.854L-190.978 367.274C-191.488 367.001 -192.062 366.895 -192.682 366.986C-194.191 367.211 -195.217 368.614 -194.986 370.098C-194.761 371.606 -193.358 372.632 -191.873 372.402C-191.443 372.344 -191.041 372.177 -190.7 371.943L-118.976 456.47C-120.329 456.808 -121.209 458.141 -121.01 459.539C-120.785 461.048 -119.382 462.074 -117.898 461.843C-117.763 461.822 -117.628 461.801 -117.512 461.75L-102.048 499.471C-103.053 499.994 -103.678 501.125 -103.484 502.315C-103.387 502.909 -103.118 503.439 -102.717 503.844L-135.989 543.219L-136.259 542.584L-136.314 543.612L-136.525 543.85L-136.327 543.895L-140.189 631.176C-140.269 631.183 -140.374 631.185 -140.454 631.193C-141.963 631.418 -142.989 632.821 -142.758 634.305C-142.533 635.813 -141.13 636.839 -139.645 636.609C-138.136 636.384 -137.11 634.981 -137.341 633.497C-137.419 632.933 -137.668 632.433 -138.026 632.064L-111.474 603.109C-111.394 603.102 -111.314 603.094 -111.259 603.081C-110.885 603.037 -110.543 602.908 -110.238 602.718L-70.4872 656.231C-71.1465 656.834 -71.511 657.738 -71.3642 658.683C-71.1391 660.192 -69.7357 661.217 -68.2513 660.987C-66.7421 660.762 -65.7163 659.359 -65.9471 657.875C-66.0443 657.28 -66.3126 656.75 -66.6949 656.376L-36.7092 621.214C-36.1483 621.603 -35.462 621.787 -34.7378 621.694C-33.7684 621.553 -32.9932 620.899 -32.621 620.074L-1.32566 630.3C-1.39963 630.621 -1.42418 630.953 -1.37457 631.303C-1.14952 632.812 0.253846 633.837 1.73831 633.607C3.24749 633.382 4.27326 631.979 4.04251 630.495C3.91469 629.581 3.32884 628.848 2.58352 628.468L16.1615 594.6C16.5265 594.71 16.9333 594.752 17.3382 594.689C18.6877 594.479 19.6509 593.348 19.6692 592.026L57.0151 590.897C57.2458 592.381 58.6492 593.407 60.1336 593.176C61.6428 592.951 62.6686 591.549 62.4378 590.065C62.3959 589.795 62.3235 589.544 62.2151 589.337L86.1131 574.73C86.6875 575.513 87.68 575.95 88.7292 575.801C88.9991 575.759 89.25 575.687 89.4818 575.584L110.98 612.302C110.173 612.87 109.705 613.881 109.854 614.93C110.079 616.439 111.483 617.465 112.967 617.234C114.452 617.004 115.502 615.607 115.271 614.122C115.245 614.012 115.243 613.908 115.216 613.798L174.016 591.724C174.528 592.778 175.678 593.433 176.893 593.245C178.402 593.02 179.428 591.617 179.197 590.133C178.972 588.624 177.568 587.599 176.084 587.829C175.654 587.886 175.276 588.059 174.936 588.293L116.114 517.691C116.639 517.11 116.901 516.311 116.786 515.453C116.561 513.944 115.158 512.918 113.673 513.149C112.164 513.373 111.138 514.776 111.369 516.26C111.384 516.42 111.43 516.56 111.476 516.701L82.4528 530.96C81.9125 530.029 80.8249 529.44 79.6655 529.615C79.291 529.659 78.9489 529.789 78.6449 529.979L31.3096 469.958C31.9385 469.374 32.2727 468.488 32.1448 467.574C31.9198 466.065 30.5164 465.04 29.032 465.27C27.5228 465.495 26.497 466.898 26.7278 468.382C26.7773 468.732 26.8878 469.043 27.0533 469.341L-1.98186 489.529C-2.57339 488.821 -3.49741 488.426 -4.4972 488.586L-4.252 488.538L-23.8674 400.82C-22.6017 400.409 -21.7944 399.164 -22.0042 397.814C-22.1034 397.115 -22.4649 396.538 -22.965 396.11L-1.64898 365.143C-1.13942 365.416 -0.521566 365.559 0.098078 365.467C1.60726 365.242 2.63301 363.84 2.40225 362.356C2.1772 360.847 0.77383 359.821 -0.710623 360.052C-1.30555 360.149 -1.80535 360.398 -2.20435 360.774L-45.0896 323.58C-44.7002 323.019 -44.4857 322.314 -44.604 321.584C-44.829 320.076 -46.2324 319.05 -47.7169 319.28C-48.3365 319.372 -48.8723 319.665 -49.2827 320.09L-76.4248 298.385C-76.0658 297.844 -75.8874 297.182 -76.0114 296.477C-76.2364 294.969 -77.6398 293.943 -79.1242 294.173C-79.2839 294.189 -79.4245 294.234 -79.5899 294.274L-106.203 236.372C-105.291 235.802 -104.738 234.758 -104.919 233.624C-105.034 232.765 -105.551 232.073 -106.235 231.655L-88.1858 191.819C-87.777 191.965 -87.2961 192.024 -86.8361 191.947C-85.3269 191.723 -84.3012 190.32 -84.5319 188.836C-84.757 187.327 -86.1603 186.301 -87.6448 186.532C-87.6448 186.532 -87.6695 186.526 -87.6752 186.551L-99.1305 154.93L-105.195 138.21C-104.264 137.67 -103.7 136.577 -103.881 135.442C-104.106 133.934 -105.51 132.908 -106.994 133.138C-108.153 133.314 -109.035 134.203 -109.285 135.29L-148.453 135.063C-148.447 135.038 -148.461 134.983 -148.455 134.958C-148.68 133.45 -150.083 132.424 -151.568 132.655C-153.077 132.879 -154.103 134.282 -153.872 135.766C-153.822 136.116 -153.693 136.458 -153.527 136.756L-184.22 156.458C-184.8 155.7 -185.774 155.294 -186.793 155.423C-188.323 155.513 -189.373 156.91 -189.148 158.419ZM-108.67 137.591C-108.067 138.251 -107.162 138.615 -106.218 138.468C-106.028 138.434 -105.862 138.394 -105.691 138.33L-98.8157 157.292L-88.2036 186.585C-88.4602 186.682 -88.6977 186.81 -88.8858 186.949L-128.355 153.793L-108.67 137.591ZM-48.3586 324.44L-55.7995 349.289L-91.4906 340.861C-91.4585 340.608 -91.451 340.349 -91.4929 340.08C-91.5139 339.945 -91.5406 339.834 -91.5672 339.724L-49.7545 323.156C-49.4976 323.735 -48.9785 324.193 -48.3586 324.44ZM-3.04946 362.297C-3.08165 362.55 -3.08913 362.808 -3.04717 363.078C-3.03189 363.237 -2.9862 363.378 -2.94049 363.519L-65.9692 390.733C-66.2812 390.166 -66.7566 389.745 -67.3517 389.504L-55.4684 349.886L-3.04946 362.297ZM-40.4102 617.395L-22.1164 590.623L-34.2101 616.352C-34.6189 616.206 -35.0751 616.152 -35.5598 616.223C-36.609 616.372 -37.4317 617.119 -37.7525 618.059L-40.4102 617.395ZM-69.0543 655.546C-69.4287 655.59 -69.7708 655.72 -70.0749 655.91L-109.826 602.396C-109.469 602.088 -109.218 601.678 -109.066 601.244L-41.2351 617.7L-67.3072 655.871C-67.8168 655.597 -68.4346 655.455 -69.0543 655.546ZM-189.574 370.329C-189.506 370.033 -189.481 369.7 -189.512 369.381L-145.055 360.316C-144.674 361.6 -143.385 362.444 -142.035 362.234L-135.502 388.897L-189.574 370.329ZM-151.869 137.918C-151.82 137.93 -151.746 137.947 -151.696 137.958L-159.543 176.659C-159.771 176.632 -160.004 176.631 -160.25 176.678C-160.869 176.77 -161.405 177.062 -161.816 177.488L-168.049 172.462L-151.869 137.918ZM-162.637 240.493L-163.135 252.372C-163.215 252.38 -163.32 252.382 -163.399 252.389C-163.964 252.467 -164.439 252.722 -164.832 253.074L-171.336 247.075L-160.311 183.272L-162.637 240.493ZM-162.618 252.387L-160.904 210.817L-159.73 182.105C-159.65 182.098 -159.546 182.096 -159.466 182.088C-158.981 182.018 -158.517 181.812 -158.166 181.529L-122.182 219.085L-161.097 253.128C-161.498 252.723 -162.038 252.469 -162.618 252.387ZM-162.14 177.882C-162.499 178.423 -162.683 179.11 -162.584 179.809C-162.479 180.483 -162.143 181.055 -161.667 181.477L-192.352 224.309L-168.292 172.953L-162.14 177.882ZM-191.006 226.258C-191.11 225.584 -191.447 225.012 -191.923 224.59L-161.232 181.733C-161.026 181.859 -160.791 181.965 -160.568 182.016L-171.757 246.64L-191.563 228.341C-191.119 227.767 -190.899 227.038 -191.006 226.258ZM-191.907 228.704L-171.868 247.239L-174.022 259.751C-174.225 259.73 -174.434 259.734 -174.649 259.763C-174.888 259.785 -175.114 259.863 -175.322 259.972L-192.223 228.944C-192.101 228.868 -191.979 228.792 -191.907 228.704ZM-172.076 260.797C-172.442 260.349 -172.934 260.001 -173.503 259.87L-171.399 247.685L-165.157 253.467C-165.602 254.041 -165.797 254.777 -165.685 255.531C-165.629 255.856 -165.538 256.137 -165.391 256.405L-172.076 260.797ZM-160.633 256.538L-129.383 271.931L-137.434 286.207C-137.905 285.995 -138.43 285.9 -138.97 285.984C-139.344 286.027 -139.661 286.162 -139.96 286.328L-161.164 257.145C-160.945 256.987 -160.77 256.793 -160.633 256.538ZM-81.5049 296.487C-81.5314 296.715 -81.5331 296.949 -81.4798 297.169C-81.4035 297.629 -81.2361 298.032 -80.9774 298.378L-107.495 324.583L-136.601 290.614C-136.257 290.251 -136 289.815 -135.887 289.321L-81.5049 296.487ZM-5.28727 493.711L-16.5212 520.678C-16.9299 520.532 -17.3614 520.485 -17.7967 520.567C-18.0115 520.595 -18.232 520.649 -18.4087 520.738L-24.264 511.923L-5.6923 493.436C-5.56677 493.569 -5.42987 493.652 -5.28727 493.711ZM87.5765 570.41C86.7383 570.659 86.0733 571.287 85.7867 572.079L68.129 567.388L79.5009 534.963C79.7974 535.031 80.1358 535.031 80.4551 535.001L87.5765 570.41ZM79.037 534.83L67.6652 567.255L12.7379 552.627C12.7757 552.35 12.7889 552.067 12.7527 551.772C12.7583 551.747 12.7393 551.717 12.726 551.662L77.5079 533.333C77.7915 534.023 78.343 534.566 79.037 534.83ZM-139.731 359.123C-139.752 358.988 -139.779 358.878 -139.806 358.767L-96.6606 341.725C-96.3028 342.432 -95.6658 342.943 -94.9301 343.138L-100.715 376.954L-139.812 360.379C-139.716 359.959 -139.674 359.552 -139.731 359.123ZM-94.4548 343.222C-94.2514 343.243 -94.0423 343.239 -93.8522 343.205C-93.6375 343.176 -93.4417 343.117 -93.2403 343.033L-69.4978 389.556C-69.7297 389.658 -69.9425 389.791 -70.1306 389.93L-100.287 377.131L-94.4548 343.222ZM-70.4802 390.318C-70.6967 390.58 -70.8752 390.903 -70.9796 391.244L-99.1109 398.241L-101.842 398.913C-102.141 398.064 -102.824 397.412 -103.683 397.188L-100.332 377.667L-70.4802 390.318ZM-101.728 399.433L-99.0213 398.756L-71.1105 391.812C-71.137 392.04 -71.1331 392.249 -71.1102 392.488C-71.0663 392.863 -70.9121 393.21 -70.7466 393.509L-84.7767 412.73L-102.06 401.1C-101.761 400.596 -101.655 400.023 -101.728 399.433ZM-140.044 360.82L-100.828 377.449L-104.183 397.099C-104.411 397.072 -104.62 397.076 -104.86 397.099C-105.344 397.17 -105.753 397.362 -106.099 397.62L-140.367 361.318C-140.259 361.187 -140.139 361.006 -140.044 360.82ZM-117.4 456.52L-104.783 402.528C-104.555 402.555 -104.296 402.562 -104.051 402.515C-103.327 402.421 -102.719 402.041 -102.31 401.511L-85.0465 413.11L-116.879 456.744C-117.047 456.68 -117.208 456.591 -117.4 456.52ZM-84.6224 413.415L-64.5425 426.912C-64.7551 427.383 -64.8556 427.932 -64.7774 428.497C-64.7488 428.712 -64.6954 428.932 -64.606 429.109L-95.8058 446.378L-115.997 457.546C-116.136 457.358 -116.28 457.195 -116.45 457.025L-84.6224 413.415ZM-110.315 597.965L-99.7805 575.051L-93.2657 560.89C-92.857 561.036 -92.4007 561.089 -91.9408 561.013C-91.0512 560.879 -90.2988 560.324 -89.919 559.579L-77.3459 564.764L-109.954 598.204C-110.066 598.126 -110.178 598.048 -110.315 597.965ZM-38.5442 495.053L-51.7837 536.83C-52.105 536.756 -52.4376 536.732 -52.7627 536.787C-53.3519 536.859 -53.8574 537.133 -54.2564 537.51L-66.672 527.912L-39.0291 494.785C-38.8979 494.894 -38.7306 494.958 -38.5442 495.053ZM-54.5812 537.903C-54.9954 538.458 -55.1851 539.169 -55.0669 539.899C-55.0326 540.089 -54.9926 540.254 -54.9278 540.425L-89.9811 556.911C-90.0896 556.704 -90.2341 556.541 -90.4034 556.372L-66.9969 528.305L-54.5812 537.903ZM-89.7367 559.127C-89.6209 558.737 -89.5793 558.331 -89.6423 557.926C-89.6766 557.736 -89.7166 557.57 -89.7813 557.399L-77.2613 551.515L-54.728 540.913C-54.6519 541.035 -54.5511 541.162 -54.4503 541.289L-76.9716 564.382L-89.7367 559.127ZM-54.087 541.633C-53.5184 542.102 -52.739 542.334 -51.9597 542.227C-51.6347 542.172 -51.3534 542.081 -51.0854 541.934L-22.2386 585.73C-22.5293 585.975 -22.7763 586.256 -22.9605 586.604L-76.4697 564.576L-54.087 541.633ZM-20.9387 585.171C-21.2637 585.226 -21.545 585.317 -21.813 585.464L-50.6293 541.649C-50.1866 541.309 -49.8694 540.835 -49.7195 540.298L-18.7683 546.594L-20.6441 585.134C-20.7486 585.136 -20.8532 585.138 -20.9387 585.171ZM-49.6304 539.798C-49.6039 539.57 -49.6021 539.336 -49.6498 539.091C-49.6574 539.011 -49.6708 538.956 -49.6784 538.876L-19.8324 524.547C-19.412 525.32 -18.6513 525.859 -17.794 525.979L-18.7724 546.046L-49.6304 539.798ZM-20.1313 523.697C-20.1103 523.832 -20.0894 523.967 -20.0437 524.108L-49.8592 538.418C-49.962 538.186 -50.0952 537.974 -50.2587 537.78L-24.663 512.299L-18.9085 520.987C-19.7655 521.544 -20.2934 522.593 -20.1313 523.697ZM-50.6106 537.387C-50.7855 537.242 -50.9662 537.123 -51.1772 537.022L-38.0804 495.186C-37.7591 495.26 -37.4511 495.279 -37.1014 495.229C-36.7764 495.174 -36.4704 495.089 -36.2024 494.942L-24.9541 511.868L-50.6106 537.387ZM-61.6455 430.831C-61.5904 430.818 -61.5657 430.824 -61.5353 430.805L-48.0157 465.893L-38.6988 490.074C-39.229 490.343 -39.6337 490.744 -39.9072 491.253L-85.1535 472.559L-63.2803 430.585C-62.7841 430.803 -62.2347 430.904 -61.6455 430.831ZM-40.1666 493.171C-40.0466 493.666 -39.786 494.117 -39.4474 494.455L-67.096 527.606L-98.4441 503.371C-98.1516 502.892 -97.996 502.33 -98.0191 501.752L-40.1666 493.171ZM-98.7442 503.77L-67.4152 527.975L-90.8217 556.041C-91.3143 555.694 -91.9017 555.532 -92.5347 555.569L-100.126 504.571C-99.5499 504.443 -99.0938 504.158 -98.7442 503.77ZM-95.0841 558.728C-94.9448 559.592 -94.4331 560.309 -93.7429 560.702L-98.4899 571.03L-110.792 597.777C-110.891 597.754 -111.009 597.701 -111.113 597.703L-106.076 552.216L-93.2759 555.736C-94.4922 556.158 -95.2748 557.409 -95.0841 558.728ZM-108.997 599.699C-109.103 599.259 -109.326 598.869 -109.596 598.573L-76.8496 564.983L-23.1485 587.081C-23.2415 587.372 -23.285 587.674 -23.2601 588.018L-108.997 599.699ZM-20.1575 585.168L-18.2987 546.702L7.2611 551.886C7.2346 552.114 7.23281 552.348 7.28045 552.593C7.3777 553.188 7.65166 553.693 8.02825 554.092L-18.9616 585.626C-19.2981 585.392 -19.7012 585.221 -20.1575 585.168ZM7.3749 551.392L-18.2838 546.185L-17.313 526.038C-17.2085 526.036 -17.1287 526.028 -17.0184 526.001C-16.5337 525.931 -16.0947 525.72 -15.7185 525.442L7.94655 550.379C7.69957 550.66 7.49066 551.003 7.3749 551.392ZM-6.08594 493.111L-24.5551 511.491L-35.7407 494.632C-35.1592 494.142 -34.7661 493.452 -34.7133 492.657L-6.7443 491.788C-6.68511 492.322 -6.42446 492.773 -6.08594 493.111ZM-6.8396 491.298L-34.7591 492.179C-34.7534 492.154 -34.7478 492.129 -34.7725 492.123C-34.9975 490.615 -36.4009 489.589 -37.8854 489.819C-37.9956 489.846 -38.1058 489.873 -38.2161 489.899L-59.0426 435.801L-61.0088 430.666C-60.8377 430.601 -60.661 430.512 -60.5089 430.417L-6.16569 489.502C-6.61785 489.996 -6.86464 490.616 -6.8396 491.298ZM-64.2918 426.501L-84.3223 413.016L-70.4004 393.927C-69.8413 394.55 -68.9857 394.903 -68.1018 394.794L-62.975 425.53C-63.5128 425.718 -63.9555 426.058 -64.2918 426.501ZM-96.9347 340.882C-96.9137 341.016 -96.8871 341.127 -96.8604 341.237L-140.005 358.279C-140.095 358.102 -140.209 357.92 -140.334 357.787L-107.517 325.358L-96.1964 338.58C-96.7759 339.175 -97.0739 340.017 -96.9347 340.882ZM-138.148 291.454C-137.718 291.397 -137.315 291.23 -136.969 290.971L-107.844 324.97L-140.667 357.424C-141.061 357.099 -141.532 356.887 -142.032 356.797L-138.437 291.466C-138.357 291.458 -138.252 291.456 -138.148 291.454ZM-141.564 362.109C-141.283 362.017 -141.015 361.871 -140.76 361.669L-106.492 397.972C-106.697 398.185 -106.859 398.434 -106.971 398.694L-134.951 389.102L-141.564 362.109ZM-107.134 399.177C-107.214 399.523 -107.238 399.855 -107.194 400.23C-107.026 401.309 -106.279 402.132 -105.283 402.439L-117.895 456.407C-118.073 456.391 -118.252 456.376 -118.412 456.391L-134.774 389.689L-107.134 399.177ZM-115.569 458.737C-115.616 458.492 -115.67 458.272 -115.772 458.04L-64.3815 429.603C-64.2103 429.876 -63.9839 430.136 -63.7158 430.328L-85.6307 472.371L-115.669 459.963C-115.523 459.554 -115.481 459.148 -115.569 458.737ZM-85.3852 473L-40.1141 491.7C-40.2128 492.015 -40.2564 492.317 -40.2315 492.661L-98.084 501.243C-98.263 500.551 -98.6986 499.956 -99.2653 499.592L-85.3852 473ZM-100.586 504.647L-93.0633 555.265L-106.012 551.71L-100.801 504.676C-100.715 504.643 -100.666 504.655 -100.586 504.647ZM-111.613 597.614C-111.767 597.604 -111.902 597.625 -112.062 597.641C-112.222 597.656 -112.362 597.702 -112.503 597.747L-135.61 544.06L-106.559 552.052L-111.613 597.614ZM-108.934 600.781C-108.899 600.632 -108.915 600.473 -108.905 600.319L-108.772 600.193L-23.2143 588.497C-23.0676 589.103 -22.7442 589.62 -22.2821 589.986L-40.9292 617.276L-108.934 600.781ZM-1.15674 629.792L-32.4464 619.542C-32.3724 619.22 -32.3479 618.888 -32.3975 618.538C-32.4261 618.324 -32.4794 618.103 -32.5632 617.902L-11.184 606.774L-0.0909605 628.555C-0.577443 628.859 -0.932688 629.271 -1.15674 629.792ZM-32.8238 617.451C-33.0521 617.087 -33.3716 616.779 -33.7386 616.564L-21.4797 590.457C-21.0709 590.604 -20.6147 590.657 -20.13 590.586C-19.9152 590.558 -19.7195 590.499 -19.518 590.415L-11.4142 606.304L-32.8238 617.451ZM-19.079 590.204C-18.4405 589.805 -18.0037 589.151 -17.8634 588.429L14.2079 591.783C14.1928 591.961 14.2024 592.145 14.2367 592.335C14.271 592.526 14.3053 592.716 14.37 592.887L-10.9999 606.087L-19.079 590.204ZM14.297 591.283L-13.4534 588.378L16.0448 589.344C15.1706 589.637 14.5266 590.399 14.297 591.283ZM-17.8029 587.714C-17.8105 587.634 -17.8182 587.554 -17.8258 587.475C-17.9231 586.88 -18.197 586.374 -18.5736 585.975L8.41621 554.442C8.97717 554.831 9.68817 555.021 10.4124 554.928C11.0567 554.842 11.5983 554.524 12.0144 554.074L57.3924 589.033C57.1835 589.375 57.0677 589.764 57.0261 590.171L-17.8029 587.714ZM12.3449 553.656C12.4589 553.5 12.5291 553.308 12.5937 553.14L67.4715 567.757L60.4389 587.783C60.0929 587.703 59.7355 587.673 59.361 587.717C58.6863 587.822 58.1143 588.158 57.6925 588.633L12.3449 553.656ZM60.9218 587.946L67.9601 567.896L85.6425 572.592C85.6046 572.87 85.5914 573.153 85.6277 573.448C85.664 573.742 85.761 573.999 85.8828 574.261L61.9905 588.843C61.7432 588.448 61.3439 588.148 60.9218 587.946ZM91.0695 572.646C90.8578 571.192 89.5095 570.153 88.0668 570.315L80.9912 535.046L111.151 611.56L89.9626 575.305C90.7759 574.711 91.243 573.7 91.0695 572.646ZM112.183 611.824C112.048 611.845 111.938 611.872 111.828 611.898L81.3845 534.694C81.7436 534.491 82.0648 534.227 82.2984 533.89L113.273 552.628L112.368 611.815C112.318 611.803 112.238 611.811 112.183 611.824ZM77.3422 532.697C77.3556 532.752 77.3746 532.782 77.3632 532.832L12.5756 551.185C12.2843 550.416 11.6397 549.825 10.8659 549.568L16.1464 526.641L77.304 532.298C77.325 532.433 77.3213 532.562 77.3422 532.697ZM10.3716 549.455C10.1188 549.422 9.86024 549.415 9.59033 549.457C9.10565 549.527 8.66665 549.738 8.29042 550.016L-15.3499 525.085C-15.0308 524.716 -14.7991 524.275 -14.71 523.775L15.635 526.602L10.3716 549.455ZM-14.6513 523.295C-14.6476 523.165 -14.6685 523.03 -14.6895 522.895C-14.7868 522.301 -15.055 521.771 -15.4563 521.366L27.8502 470.175C28.0746 470.331 28.3103 470.437 28.5518 470.519L15.7488 526.108L-14.6513 523.295ZM27.4565 469.851L-15.85 521.041C-15.9184 520.999 -16.0116 520.952 -16.0801 520.91L-4.81006 493.899C-4.46406 493.979 -4.08197 494.015 -3.70752 493.971C-2.19834 493.746 -1.17258 492.343 -1.40332 490.859C-1.45293 490.51 -1.56334 490.198 -1.72886 489.9L27.3063 469.712C27.3747 469.754 27.4128 469.814 27.4565 469.851ZM-5.87125 489.128L-60.1708 430.078C-59.5666 429.489 -59.2078 428.609 -59.3603 427.689C-59.4232 427.284 -59.5717 426.912 -59.781 426.578L-26.7058 400.036C-26.1163 400.64 -25.2797 400.963 -24.3959 400.854L-4.77473 488.548C-5.16625 488.666 -5.55013 488.863 -5.87125 489.128ZM-27.4536 398.537C-27.3907 398.941 -27.2422 399.314 -27.033 399.648L-59.35 425.61L-32.6322 397.292L-27.4634 398.014C-27.4785 398.193 -27.4689 398.377 -27.4536 398.537ZM-60.3648 425.949C-60.9391 425.504 -61.6939 425.278 -62.4485 425.391L-62.4732 425.385L-67.5867 394.705C-66.6136 394.435 -65.9088 393.634 -65.6926 392.695L-33.2368 397.205L-60.3648 425.949ZM-65.6282 392.19C-65.6131 392.011 -65.6284 391.852 -65.6627 391.662C-65.678 391.502 -65.7237 391.361 -65.7693 391.221L-2.74066 364.007C-2.65124 364.184 -2.53141 364.341 -2.38685 364.505L-32.8264 396.779L-65.6282 392.19ZM-67.846 389.39C-68.1426 389.321 -68.481 389.321 -68.8003 389.352C-68.8801 389.36 -68.9352 389.373 -68.9903 389.386L-92.7708 342.803C-92.2483 342.455 -91.8455 341.95 -91.6291 341.349L-55.9627 349.772L-67.846 389.39ZM-93.5717 337.806C-93.9177 337.726 -94.2751 337.696 -94.6496 337.74C-95.0791 337.797 -95.482 337.964 -95.8278 338.223L-107.167 324.97L-80.6502 298.765C-80.4562 298.94 -80.2318 299.096 -80.0018 299.227L-93.5717 337.806ZM-81.3911 295.993L-135.798 288.821C-135.788 288.667 -135.798 288.483 -135.838 288.318C-135.945 287.539 -136.393 286.889 -136.998 286.464L-128.917 272.169L-81.2619 295.658C-81.3151 295.776 -81.3683 295.894 -81.3911 295.993ZM-129.132 271.521L-160.402 256.098C-160.225 255.67 -160.167 255.189 -160.237 254.705C-160.264 254.594 -160.29 254.484 -160.317 254.374L-120.216 239.024L-110.113 235.159C-109.902 235.598 -109.569 235.961 -109.183 236.206L-129.132 271.521ZM-110.393 234.34C-110.367 234.45 -110.346 234.585 -110.319 234.696L-160.523 253.91C-160.593 253.764 -160.669 253.642 -160.77 253.515L-121.855 219.473L-109.727 232.126C-110.246 232.683 -110.513 233.506 -110.393 234.34ZM-121.795 218.758L-157.778 181.202C-157.489 180.852 -157.269 180.461 -157.167 180.016L-89.9609 188.678C-90.0292 188.975 -90.0233 189.288 -89.9927 189.607C-89.9488 189.982 -89.8194 190.324 -89.6292 190.628L-121.795 218.758ZM-89.2792 187.3C-89.5204 187.557 -89.6933 187.855 -89.8167 188.165L-157.097 179.486C-157.087 179.332 -157.097 179.147 -157.112 178.988C-157.169 178.558 -157.342 178.18 -157.552 177.846L-128.718 154.125L-89.2792 187.3ZM-157.904 177.453C-158.217 177.12 -158.634 176.894 -159.073 176.767L-151.21 137.992C-151.08 137.996 -150.945 137.975 -150.816 137.979C-150.141 137.874 -149.539 137.519 -149.117 137.043L-129.167 153.814L-157.904 177.453ZM-152.352 137.755L-168.468 172.132L-184.145 159.519C-183.786 158.978 -183.602 158.292 -183.701 157.592C-183.762 157.292 -183.847 156.986 -183.969 156.724L-153.276 137.022C-153.037 137.337 -152.725 137.565 -152.352 137.755ZM-186.459 160.755C-186.305 160.765 -186.17 160.744 -186.011 160.729C-185.391 160.637 -184.855 160.344 -184.445 159.918L-168.68 172.603L-192.793 224.078C-192.911 224.024 -193.06 223.99 -193.183 223.962L-186.459 160.755ZM-171.883 263.912C-171.554 263.389 -171.431 262.741 -171.517 262.097C-171.572 261.772 -171.664 261.491 -171.81 261.223L-165.125 256.831C-164.539 257.564 -163.571 257.995 -162.572 257.835C-162.197 257.791 -161.88 257.656 -161.582 257.491L-140.378 286.674C-140.475 286.756 -140.541 286.818 -140.613 286.906L-171.883 263.912ZM-139.845 291.141C-139.566 291.284 -139.281 291.401 -138.954 291.451L-142.55 356.782C-142.654 356.784 -142.759 356.786 -142.844 356.819C-144.298 357.03 -145.337 358.378 -145.175 359.82L-189.632 368.885C-189.796 368.353 -190.106 367.891 -190.543 367.531L-139.845 291.141ZM-190.288 371.622C-190.053 371.39 -189.885 371.116 -189.743 370.837L-135.355 389.503L-119.186 455.459L-190.288 371.622ZM-116.999 461.556C-116.499 461.307 -116.088 460.881 -115.845 460.391L-85.8567 472.787L-99.7064 499.36C-100.159 499.178 -100.64 499.119 -101.149 499.184C-101.284 499.205 -101.419 499.226 -101.535 499.277L-116.999 461.556ZM-102.318 504.144C-102 504.347 -101.671 504.501 -101.301 504.587L-106.495 551.547L-135.59 543.519L-102.318 504.144ZM-138.389 631.721C-138.764 631.426 -139.191 631.25 -139.672 631.191L-135.836 544.815L-112.948 597.983C-113.928 598.512 -114.523 599.623 -114.353 600.807C-114.189 602.016 -113.249 602.909 -112.101 603.121L-138.389 631.721ZM-65.7397 654.489L-40.697 617.85L-37.8359 618.535C-37.8681 618.787 -37.8812 619.07 -37.8393 619.34C-37.742 619.935 -37.4737 620.465 -37.0915 620.839L-65.7397 654.489ZM2.14239 628.237C1.77737 628.126 1.37058 628.085 0.965709 628.148C0.750933 628.176 0.555166 628.235 0.353724 628.319L-10.7393 606.538L14.6307 593.337C14.8913 593.787 15.2793 594.137 15.7204 594.368L2.14239 628.237ZM19.6899 591.484C19.5183 590.534 18.8888 589.765 18.0579 589.417L51.7115 590.534L19.6899 591.484ZM115.066 613.321C114.662 612.473 113.833 611.892 112.89 611.805L113.802 552.931L174.02 589.331C173.777 589.821 173.677 590.371 173.78 590.941C173.807 591.051 173.808 591.155 173.835 591.266L115.066 613.321ZM174.554 588.595C174.452 588.702 174.379 588.789 174.277 588.896L113.784 552.329L114.303 518.549C114.358 518.536 114.408 518.547 114.463 518.534C114.948 518.463 115.381 518.277 115.732 517.994L174.554 588.595ZM111.638 517.129C112.077 517.932 112.887 518.483 113.805 518.564L113.305 552.037L82.5548 533.455C82.7675 532.984 82.8622 532.459 82.784 531.895C82.7497 531.705 82.7097 531.539 82.6697 531.374L111.638 517.129ZM78.2439 530.251C77.7898 530.64 77.4802 531.193 77.3684 531.792L16.2849 526.153L29.0651 470.663C29.3179 470.696 29.5764 470.703 29.8463 470.661C30.2512 470.598 30.6237 470.45 30.9334 470.235L78.2439 530.251ZM-25.1247 395.431C-26.2842 395.606 -27.1543 396.446 -27.399 397.509L-32.2162 396.841L-2.40358 365.255L-23.3777 395.755C-23.9063 395.451 -24.5051 395.339 -25.1247 395.431ZM-2.56156 361.082C-2.71731 361.307 -2.84835 361.537 -2.93565 361.803L-55.3356 349.422L-47.9005 324.597C-47.6039 324.666 -47.2655 324.666 -46.9462 324.635C-46.3512 324.538 -45.8515 324.289 -45.4525 323.912L-2.56156 361.082ZM-49.64 320.398C-49.9989 320.94 -50.1773 321.602 -50.0534 322.306C-50.0324 322.441 -50.0057 322.552 -49.9791 322.662L-91.7918 339.23C-92.0791 338.67 -92.5241 338.229 -93.0888 337.969L-79.5246 299.415C-79.1595 299.525 -78.7775 299.561 -78.3726 299.498C-77.7529 299.406 -77.2171 299.113 -76.8067 298.688L-49.64 320.398ZM-80.086 294.394C-80.4698 294.592 -80.7719 294.887 -81.0055 295.223L-128.661 271.733L-108.748 236.462C-108.295 236.645 -107.795 236.734 -107.256 236.65C-107.066 236.616 -106.875 236.581 -106.699 236.492L-80.086 294.394ZM-106.715 231.363C-107.123 231.217 -107.604 231.158 -108.064 231.234C-108.549 231.305 -108.982 231.491 -109.334 231.774L-121.437 219.127L-89.302 191.015C-89.1137 191.215 -88.8951 191.395 -88.6707 191.551L-106.715 231.363ZM-109.376 135.686C-109.386 135.84 -109.371 135.999 -109.355 136.159C-109.311 136.533 -109.182 136.875 -108.992 137.179L-128.773 153.462L-148.836 136.614C-148.652 136.266 -148.511 135.882 -148.495 135.47L-109.376 135.686Z" fill="url(#paint3_radial_1824_2439)"/>
</g>
<g filter="url(#filter4_d_1824_2439)">
<path d="M161.435 520.923C157.9 520.109 154.374 522.314 153.56 525.848C152.747 529.381 154.952 532.906 158.487 533.72C162.022 534.535 165.548 532.33 166.362 528.796C167.176 525.262 164.97 521.737 161.435 520.923Z" fill="url(#paint4_linear_1824_2439)" shape-rendering="crispEdges"/>
<path d="M155.022 526.184C155.65 523.458 158.37 521.757 161.098 522.385C163.826 523.013 165.528 525.733 164.9 528.459C164.272 531.185 161.552 532.887 158.824 532.259C156.096 531.63 154.394 528.91 155.022 526.184Z" stroke="url(#paint5_linear_1824_2439)" stroke-width="3" shape-rendering="crispEdges"/>
</g>
<g filter="url(#filter5_d_1824_2439)">
<path d="M139.626 577.871C138.428 579.234 136.344 579.353 135.006 578.16C133.642 576.961 133.523 574.879 134.716 573.541C135.915 572.178 137.998 572.059 139.337 573.252C140.7 574.451 140.825 576.508 139.626 577.871Z" fill="url(#paint6_linear_1824_2439)" shape-rendering="crispEdges"/>
<path d="M136.003 577.04L136.003 577.04L135.996 577.033C135.258 576.384 135.197 575.255 135.836 574.539L135.836 574.539L135.843 574.531C136.491 573.794 137.621 573.732 138.339 574.372L138.339 574.372L138.347 574.379C139.083 575.026 139.156 576.135 138.5 576.881C137.851 577.618 136.721 577.679 136.003 577.04Z" stroke="url(#paint7_linear_1824_2439)" stroke-width="3" shape-rendering="crispEdges"/>
</g>
<g opacity="0.5" filter="url(#filter6_d_1824_2439)">
<path d="M14.327 348.322C12.5663 347.916 10.8104 349.014 10.405 350.775C9.99964 352.535 11.0983 354.29 12.859 354.696C14.6197 355.101 16.3756 354.003 16.781 352.243C17.1864 350.483 16.0877 348.727 14.327 348.322Z" fill="url(#paint8_linear_1824_2439)" shape-rendering="crispEdges"/>
<path d="M11.8668 351.111C12.0861 350.159 13.0365 349.564 13.9903 349.784C14.9442 350.003 15.5386 350.954 15.3193 351.906C15.0999 352.859 14.1495 353.454 13.1957 353.234C12.2418 353.014 11.6474 352.064 11.8668 351.111Z" stroke="url(#paint9_linear_1824_2439)" stroke-width="3" shape-rendering="crispEdges"/>
</g>
<g opacity="0.5" filter="url(#filter7_d_1824_2439)">
<path d="M50.8943 564.251C49.6956 565.614 47.6124 565.733 46.2736 564.54C44.9102 563.341 44.7913 561.259 45.9843 559.921C47.183 558.558 49.2662 558.439 50.605 559.632C51.9741 560.806 52.093 562.888 50.8943 564.251Z" fill="url(#paint10_linear_1824_2439)" shape-rendering="crispEdges"/>
<path d="M47.2715 563.42L47.2715 563.42L47.264 563.413C46.5257 562.764 46.465 561.635 47.1039 560.919L47.104 560.919L47.1106 560.911C47.7595 560.174 48.8894 560.112 49.6071 560.752L49.6178 560.761L49.6286 560.771C50.3428 561.383 50.4326 562.505 49.768 563.261C49.1191 563.998 47.9892 564.059 47.2715 563.42Z" stroke="url(#paint11_linear_1824_2439)" stroke-width="3" shape-rendering="crispEdges"/>
</g>
<g opacity="0.5" filter="url(#filter8_d_1824_2439)">
<path d="M9.01896 437.247C7.25827 436.841 5.50233 437.939 5.09695 439.699C4.69157 441.459 5.79026 443.215 7.55095 443.62C9.31163 444.026 11.0676 442.928 11.473 441.168C11.8783 439.408 10.7796 437.652 9.01896 437.247Z" fill="url(#paint12_linear_1824_2439)" shape-rendering="crispEdges"/>
<path d="M6.55868 440.036C6.77802 439.084 7.72844 438.489 8.6823 438.708C9.63615 438.928 10.2306 439.879 10.0112 440.831C9.79189 441.783 8.84146 442.378 7.88761 442.159C6.93376 441.939 6.33934 440.988 6.55868 440.036Z" stroke="url(#paint13_linear_1824_2439)" stroke-width="3" shape-rendering="crispEdges"/>
</g>
<g opacity="0.5" filter="url(#filter9_d_1824_2439)">
<path d="M55.226 325.324C54.0272 326.687 51.9441 326.806 50.6053 325.613C49.2419 324.414 49.123 322.332 50.316 320.994C51.5147 319.631 53.5979 319.512 54.9366 320.705C56.3058 321.879 56.4247 323.962 55.226 325.324Z" fill="url(#paint14_linear_1824_2439)" shape-rendering="crispEdges"/>
<path d="M51.6032 324.493L51.6032 324.493L51.5957 324.486C50.8574 323.837 50.7967 322.709 51.4356 321.992L51.4357 321.992L51.4423 321.984C52.0912 321.247 53.2211 321.186 53.9387 321.825L53.9494 321.835L53.9603 321.844C54.6745 322.456 54.7642 323.578 54.0996 324.334C53.4508 325.072 52.3209 325.133 51.6032 324.493Z" stroke="url(#paint15_linear_1824_2439)" stroke-width="3" shape-rendering="crispEdges"/>
</g>
<g filter="url(#filter10_d_1824_2439)">
<path d="M4.06274 538.089C2.86403 539.452 0.78083 539.571 -0.557925 538.378C-1.92139 537.179 -2.04029 535.097 -0.847272 533.758C0.34575 532.42 2.43464 532.277 3.7734 533.47C5.13687 534.668 5.26146 536.726 4.06274 538.089Z" fill="url(#paint16_linear_1824_2439)" shape-rendering="crispEdges"/>
<path d="M0.439953 537.258L0.439976 537.258L0.43241 537.251C-0.305893 536.602 -0.366523 535.473 0.272374 534.757C0.927143 534.022 2.06956 533.961 2.77552 534.59L2.7755 534.59L2.78306 534.596C3.51947 535.244 3.59207 536.353 2.93642 537.098C2.28756 537.836 1.15765 537.897 0.439953 537.258Z" stroke="url(#paint17_linear_1824_2439)" stroke-width="3" shape-rendering="crispEdges"/>
</g>
</g>
<defs>
<filter id="filter0_d_1824_2439" x="72.5569" y="203.221" width="21.811" height="21.8086" filterUnits="userSpaceOnUse" color-interpolation-filters="sRGB">
<feFlood flood-opacity="0" result="BackgroundImageFix"/>
<feColorMatrix in="SourceAlpha" type="matrix" values="0 0 0 0 0 0 0 0 0 0 0 0 0 0 0 0 0 0 127 0" result="hardAlpha"/>
<feOffset/>
<feGaussianBlur stdDeviation="3.5"/>
<feComposite in2="hardAlpha" operator="out"/>
<feColorMatrix type="matrix" values="0 0 0 0 0.391451 0 0 0 0 0.180392 0 0 0 0 0.992157 0 0 0 1 0"/>
<feBlend mode="normal" in2="BackgroundImageFix" result="effect1_dropShadow_1824_2439"/>
<feBlend mode="normal" in="SourceGraphic" in2="effect1_dropShadow_1824_2439" result="shape"/>
</filter>
<filter id="filter1_d_1824_2439" x="-316.607" y="164.478" width="445.268" height="468.946" filterUnits="userSpaceOnUse" color-interpolation-filters="sRGB">
<feFlood flood-opacity="0" result="BackgroundImageFix"/>
<feColorMatrix in="SourceAlpha" type="matrix" values="0 0 0 0 0 0 0 0 0 0 0 0 0 0 0 0 0 0 127 0" result="hardAlpha"/>
<feOffset/>
<feGaussianBlur stdDeviation="3.5"/>
<feComposite in2="hardAlpha" operator="out"/>
<feColorMatrix type="matrix" values="0 0 0 0 0.391451 0 0 0 0 0.180392 0 0 0 0 0.992157 0 0 0 1 0"/>
<feBlend mode="normal" in2="BackgroundImageFix" result="effect1_dropShadow_1824_2439"/>
<feBlend mode="normal" in="SourceGraphic" in2="effect1_dropShadow_1824_2439" result="shape"/>
</filter>
<filter id="filter2_d_1824_2439" x="23.3624" y="52.9268" width="21.8108" height="21.8102" filterUnits="userSpaceOnUse" color-interpolation-filters="sRGB">
<feFlood flood-opacity="0" result="BackgroundImageFix"/>
<feColorMatrix in="SourceAlpha" type="matrix" values="0 0 0 0 0 0 0 0 0 0 0 0 0 0 0 0 0 0 127 0" result="hardAlpha"/>
<feOffset/>
<feGaussianBlur stdDeviation="3.5"/>
<feComposite in2="hardAlpha" operator="out"/>
<feColorMatrix type="matrix" values="0 0 0 0 0.391451 0 0 0 0 0.180392 0 0 0 0 0.992157 0 0 0 1 0"/>
<feBlend mode="normal" in2="BackgroundImageFix" result="effect1_dropShadow_1824_2439"/>
<feBlend mode="normal" in="SourceGraphic" in2="effect1_dropShadow_1824_2439" result="shape"/>
</filter>
<filter id="filter3_d_1824_2439" x="-203.485" y="125.622" width="389.715" height="542.397" filterUnits="userSpaceOnUse" color-interpolation-filters="sRGB">
<feFlood flood-opacity="0" result="BackgroundImageFix"/>
<feColorMatrix in="SourceAlpha" type="matrix" values="0 0 0 0 0 0 0 0 0 0 0 0 0 0 0 0 0 0 127 0" result="hardAlpha"/>
<feOffset/>
<feGaussianBlur stdDeviation="3.5"/>
<feComposite in2="hardAlpha" operator="out"/>
<feColorMatrix type="matrix" values="0 0 0 0 0.391451 0 0 0 0 0.180392 0 0 0 0 0.992157 0 0 0 1 0"/>
<feBlend mode="normal" in2="BackgroundImageFix" result="effect1_dropShadow_1824_2439"/>
<feBlend mode="normal" in="SourceGraphic" in2="effect1_dropShadow_1824_2439" result="shape"/>
</filter>
<filter id="filter4_d_1824_2439" x="146.392" y="513.754" width="27.1392" height="27.1354" filterUnits="userSpaceOnUse" color-interpolation-filters="sRGB">
<feFlood flood-opacity="0" result="BackgroundImageFix"/>
<feColorMatrix in="SourceAlpha" type="matrix" values="0 0 0 0 0 0 0 0 0 0 0 0 0 0 0 0 0 0 127 0" result="hardAlpha"/>
<feOffset/>
<feGaussianBlur stdDeviation="3.5"/>
<feComposite in2="hardAlpha" operator="out"/>
<feColorMatrix type="matrix" values="0 0 0 0 0.391451 0 0 0 0 0.180392 0 0 0 0 0.992157 0 0 0 1 0"/>
<feBlend mode="normal" in2="BackgroundImageFix" result="effect1_dropShadow_1824_2439"/>
<feBlend mode="normal" in="SourceGraphic" in2="effect1_dropShadow_1824_2439" result="shape"/>
</filter>
<filter id="filter5_d_1824_2439" x="126.896" y="565.432" width="20.5525" height="20.5482" filterUnits="userSpaceOnUse" color-interpolation-filters="sRGB">
<feFlood flood-opacity="0" result="BackgroundImageFix"/>
<feColorMatrix in="SourceAlpha" type="matrix" values="0 0 0 0 0 0 0 0 0 0 0 0 0 0 0 0 0 0 127 0" result="hardAlpha"/>
<feOffset/>
<feGaussianBlur stdDeviation="3.5"/>
<feComposite in2="hardAlpha" operator="out"/>
<feColorMatrix type="matrix" values="0 0 0 0 0.391451 0 0 0 0 0.180392 0 0 0 0 0.992157 0 0 0 1 0"/>
<feBlend mode="normal" in2="BackgroundImageFix" result="effect1_dropShadow_1824_2439"/>
<feBlend mode="normal" in="SourceGraphic" in2="effect1_dropShadow_1824_2439" result="shape"/>
</filter>
<filter id="filter6_d_1824_2439" x="3.32086" y="341.238" width="20.5443" height="20.5422" filterUnits="userSpaceOnUse" color-interpolation-filters="sRGB">
<feFlood flood-opacity="0" result="BackgroundImageFix"/>
<feColorMatrix in="SourceAlpha" type="matrix" values="0 0 0 0 0 0 0 0 0 0 0 0 0 0 0 0 0 0 127 0" result="hardAlpha"/>
<feOffset/>
<feGaussianBlur stdDeviation="3.5"/>
<feComposite in2="hardAlpha" operator="out"/>
<feColorMatrix type="matrix" values="0 0 0 0 0.391451 0 0 0 0 0.180392 0 0 0 0 0.992157 0 0 0 1 0"/>
<feBlend mode="normal" in2="BackgroundImageFix" result="effect1_dropShadow_1824_2439"/>
<feBlend mode="normal" in="SourceGraphic" in2="effect1_dropShadow_1824_2439" result="shape"/>
</filter>
<filter id="filter7_d_1824_2439" x="38.1642" y="551.812" width="20.5544" height="20.5483" filterUnits="userSpaceOnUse" color-interpolation-filters="sRGB">
<feFlood flood-opacity="0" result="BackgroundImageFix"/>
<feColorMatrix in="SourceAlpha" type="matrix" values="0 0 0 0 0 0 0 0 0 0 0 0 0 0 0 0 0 0 127 0" result="hardAlpha"/>
<feOffset/>
<feGaussianBlur stdDeviation="3.5"/>
<feComposite in2="hardAlpha" operator="out"/>
<feColorMatrix type="matrix" values="0 0 0 0 0.391451 0 0 0 0 0.180392 0 0 0 0 0.992157 0 0 0 1 0"/>
<feBlend mode="normal" in2="BackgroundImageFix" result="effect1_dropShadow_1824_2439"/>
<feBlend mode="normal" in="SourceGraphic" in2="effect1_dropShadow_1824_2439" result="shape"/>
</filter>
<filter id="filter8_d_1824_2439" x="-1.98718" y="430.162" width="20.5443" height="20.5424" filterUnits="userSpaceOnUse" color-interpolation-filters="sRGB">
<feFlood flood-opacity="0" result="BackgroundImageFix"/>
<feColorMatrix in="SourceAlpha" type="matrix" values="0 0 0 0 0 0 0 0 0 0 0 0 0 0 0 0 0 0 127 0" result="hardAlpha"/>
<feOffset/>
<feGaussianBlur stdDeviation="3.5"/>
<feComposite in2="hardAlpha" operator="out"/>
<feColorMatrix type="matrix" values="0 0 0 0 0.391451 0 0 0 0 0.180392 0 0 0 0 0.992157 0 0 0 1 0"/>
<feBlend mode="normal" in2="BackgroundImageFix" result="effect1_dropShadow_1824_2439"/>
<feBlend mode="normal" in="SourceGraphic" in2="effect1_dropShadow_1824_2439" result="shape"/>
</filter>
<filter id="filter9_d_1824_2439" x="42.4958" y="312.885" width="20.5544" height="20.5483" filterUnits="userSpaceOnUse" color-interpolation-filters="sRGB">
<feFlood flood-opacity="0" result="BackgroundImageFix"/>
<feColorMatrix in="SourceAlpha" type="matrix" values="0 0 0 0 0 0 0 0 0 0 0 0 0 0 0 0 0 0 127 0" result="hardAlpha"/>
<feOffset/>
<feGaussianBlur stdDeviation="3.5"/>
<feComposite in2="hardAlpha" operator="out"/>
<feColorMatrix type="matrix" values="0 0 0 0 0.391451 0 0 0 0 0.180392 0 0 0 0 0.992157 0 0 0 1 0"/>
<feBlend mode="normal" in2="BackgroundImageFix" result="effect1_dropShadow_1824_2439"/>
<feBlend mode="normal" in="SourceGraphic" in2="effect1_dropShadow_1824_2439" result="shape"/>
</filter>
<filter id="filter10_d_1824_2439" x="-8.66742" y="525.658" width="20.5526" height="20.5398" filterUnits="userSpaceOnUse" color-interpolation-filters="sRGB">
<feFlood flood-opacity="0" result="BackgroundImageFix"/>
<feColorMatrix in="SourceAlpha" type="matrix" values="0 0 0 0 0 0 0 0 0 0 0 0 0 0 0 0 0 0 127 0" result="hardAlpha"/>
<feOffset/>
<feGaussianBlur stdDeviation="3.5"/>
<feComposite in2="hardAlpha" operator="out"/>
<feColorMatrix type="matrix" values="0 0 0 0 0.391451 0 0 0 0 0.180392 0 0 0 0 0.992157 0 0 0 1 0"/>
<feBlend mode="normal" in2="BackgroundImageFix" result="effect1_dropShadow_1824_2439"/>
<feBlend mode="normal" in="SourceGraphic" in2="effect1_dropShadow_1824_2439" result="shape"/>
</filter>
<radialGradient id="paint0_radial_1824_2439" cx="0" cy="0" r="1" gradientUnits="userSpaceOnUse" gradientTransform="translate(88.3075 219.024) rotate(117.846) scale(7.08509 10.2191)">
<stop offset="0.473958" stop-color="#BB2EFD"/>
<stop offset="1" stop-color="#7461F0"/>
</radialGradient>
<radialGradient id="paint1_radial_1824_2439" cx="0" cy="0" r="1" gradientUnits="userSpaceOnUse" gradientTransform="translate(131.597 733.02) rotate(136.179) scale(407.478 606.799)">
<stop offset="0.473958" stop-color="#BB2EFD"/>
<stop offset="1" stop-color="#7461F0"/>
</radialGradient>
<radialGradient id="paint2_radial_1824_2439" cx="0" cy="0" r="1" gradientUnits="userSpaceOnUse" gradientTransform="translate(37.5313 69.8984) rotate(134.254) scale(7.08578 10.2187)">
<stop offset="0.473958" stop-color="#BB2EFD"/>
<stop offset="1" stop-color="#7461F0"/>
</radialGradient>
<radialGradient id="paint3_radial_1824_2439" cx="0" cy="0" r="1" gradientUnits="userSpaceOnUse" gradientTransform="translate(169.106 800.64) rotate(131.674) scale(447.453 612.557)">
<stop offset="0.473958" stop-color="#BB2EFD"/>
<stop offset="1" stop-color="#7461F0"/>
</radialGradient>
<linearGradient id="paint4_linear_1824_2439" x1="165.897" y1="541.372" x2="161.579" y2="521.802" gradientUnits="userSpaceOnUse">
<stop stop-color="#483C98"/>
<stop offset="1" stop-color="#4A3D9D" stop-opacity="0"/>
</linearGradient>
<linearGradient id="paint5_linear_1824_2439" x1="160.151" y1="534.103" x2="164.031" y2="524.314" gradientUnits="userSpaceOnUse">
<stop stop-color="#7461F0"/>
<stop offset="1" stop-color="#7461F0" stop-opacity="0"/>
</linearGradient>
<linearGradient id="paint6_linear_1824_2439" x1="140.132" y1="582.715" x2="137.978" y2="572.953" gradientUnits="userSpaceOnUse">
<stop stop-color="#483C98"/>
<stop offset="1" stop-color="#4A3D9D" stop-opacity="0"/>
</linearGradient>
<linearGradient id="paint7_linear_1824_2439" x1="137.266" y1="579.089" x2="139.201" y2="574.206" gradientUnits="userSpaceOnUse">
<stop stop-color="#7461F0"/>
<stop offset="1" stop-color="#7461F0" stop-opacity="0"/>
</linearGradient>
<linearGradient id="paint8_linear_1824_2439" x1="16.5495" y1="358.507" x2="14.3987" y2="348.76" gradientUnits="userSpaceOnUse">
<stop stop-color="#483C98"/>
<stop offset="1" stop-color="#4A3D9D" stop-opacity="0"/>
</linearGradient>
<linearGradient id="paint9_linear_1824_2439" x1="13.6874" y1="354.886" x2="15.6198" y2="350.011" gradientUnits="userSpaceOnUse">
<stop stop-color="#7461F0"/>
<stop offset="1" stop-color="#7461F0" stop-opacity="0"/>
</linearGradient>
<linearGradient id="paint10_linear_1824_2439" x1="51.4002" y1="569.095" x2="49.2461" y2="559.333" gradientUnits="userSpaceOnUse">
<stop stop-color="#483C98"/>
<stop offset="1" stop-color="#4A3D9D" stop-opacity="0"/>
</linearGradient>
<linearGradient id="paint11_linear_1824_2439" x1="48.5338" y1="565.469" x2="50.4692" y2="560.586" gradientUnits="userSpaceOnUse">
<stop stop-color="#7461F0"/>
<stop offset="1" stop-color="#7461F0" stop-opacity="0"/>
</linearGradient>
<linearGradient id="paint12_linear_1824_2439" x1="11.2414" y1="447.432" x2="9.09059" y2="437.684" gradientUnits="userSpaceOnUse">
<stop stop-color="#483C98"/>
<stop offset="1" stop-color="#4A3D9D" stop-opacity="0"/>
</linearGradient>
<linearGradient id="paint13_linear_1824_2439" x1="8.37933" y1="443.811" x2="10.3118" y2="438.935" gradientUnits="userSpaceOnUse">
<stop stop-color="#7461F0"/>
<stop offset="1" stop-color="#7461F0" stop-opacity="0"/>
</linearGradient>
<linearGradient id="paint14_linear_1824_2439" x1="55.7319" y1="330.168" x2="53.5778" y2="320.406" gradientUnits="userSpaceOnUse">
<stop stop-color="#483C98"/>
<stop offset="1" stop-color="#4A3D9D" stop-opacity="0"/>
</linearGradient>
<linearGradient id="paint15_linear_1824_2439" x1="52.8655" y1="326.542" x2="54.8009" y2="321.659" gradientUnits="userSpaceOnUse">
<stop stop-color="#7461F0"/>
<stop offset="1" stop-color="#7461F0" stop-opacity="0"/>
</linearGradient>
<linearGradient id="paint16_linear_1824_2439" x1="4.56918" y1="542.93" x2="2.4194" y2="533.174" gradientUnits="userSpaceOnUse">
<stop stop-color="#483C98"/>
<stop offset="1" stop-color="#4A3D9D" stop-opacity="0"/>
</linearGradient>
<linearGradient id="paint17_linear_1824_2439" x1="1.70225" y1="539.307" x2="3.63561" y2="534.427" gradientUnits="userSpaceOnUse">
<stop stop-color="#7461F0"/>
<stop offset="1" stop-color="#7461F0" stop-opacity="0"/>
</linearGradient>
<clipPath id="clip0_1824_2439">
<rect width="526.955" height="612.954" fill="white" transform="translate(150.511 715.586) rotate(-167.03)"/>
</clipPath>
</defs>
</svg>
